<svg width="25" height="24" viewBox="0 0 25 24" fill="none" xmlns="http://www.w3.org/2000/svg">
<path d="M17.5 13L21.5 9L17.5 5" stroke="white" stroke-width="2" stroke-linecap="round" stroke-linejoin="round"/>
<path d="M13.5 20C14.0523 20 14.5 19.5523 14.5 19C14.5 18.4477 14.0523 18 13.5 18V20ZM21.5 10C22.0523 10 22.5 9.55228 22.5 9C22.5 8.44772 22.0523 8 21.5 8V10ZM13.5 18H8.5V20H13.5V18ZM8.5 10H21.5V8H8.5V10ZM4.5 14C4.5 11.7909 6.29086 10 8.5 10V8C5.18629 8 2.5 10.6863 2.5 14H4.5ZM8.5 18C6.29086 18 4.5 16.2091 4.5 14H2.5C2.5 17.3137 5.18629 20 8.5 20V18Z" fill="white"/>
</svg>
