<svg width="25" height="24" viewBox="0 0 25 24" fill="none" xmlns="http://www.w3.org/2000/svg">
<path d="M7.5 13L3.5 9L7.5 5" stroke="white" stroke-width="2" stroke-linecap="round" stroke-linejoin="round"/>
<path d="M11.5 18C10.9477 18 10.5 18.4477 10.5 19C10.5 19.5523 10.9477 20 11.5 20V18ZM3.5 8C2.94772 8 2.5 8.44772 2.5 9C2.5 9.55228 2.94772 10 3.5 10V8ZM11.5 20H16.5V18H11.5V20ZM16.5 8H3.5V10H16.5V8ZM22.5 14C22.5 10.6863 19.8137 8 16.5 8V10C18.7091 10 20.5 11.7909 20.5 14H22.5ZM16.5 20C19.8137 20 22.5 17.3137 22.5 14H20.5C20.5 16.2091 18.7091 18 16.5 18V20Z" fill="white"/>
</svg>
